# xmcd
#
# Track frame offsets:
#	150
#	5344
#	12062
#	19087
#	25130
#	30996
#	38369
#	44578
#	55005
#	60009
#	70225
#	79279
#	87959
#	98008
#	107768
#	113884
#	120094
#	126741
#	132693
#	140827
#	147835
#	155078
#	160391
#	168192
#	176435
#	182178
#	187974
#	196353
#	203271
#	214856
#	219083
#	225583
#	232411
#	240337
#	247690
#
# Disc length: 3454 seconds
#
# Revision: 0
# Processed by: cddbd v1.5.2PL0 Copyright (c) Steve Scherf et al.
# Submitted via: audiograbber 1.81.02
#
DISCID=cc0d7c23
DTITLE=Various Artist - Mega Country
DYEAR=1900
DGENRE=Country
TTITLE0=My Maria
TTITLE1=My Baby Loves Me
TTITLE2=Kiss An Angel Good Morning
TTITLE3=Good Hearted Woman
TTITLE4=Jambalayo
TTITLE5=Do What You Do, Do Well
TTITLE6=Ashes Of Love
TTITLE7=My Friend The Wind
TTITLE8=Is The Magic Still There
TTITLE9=Bitterblue
TTITLE10=Coal Miners Daughter
TTITLE11=Bluest Heartache Of The Year
TTITLE12=You're My Best Friend
TTITLE13=Crystal Chandeliers
TTITLE14=Queen Of Hearts
TTITLE15=Bye Bye Love 
TTITLE16=Blanket On The Ground
TTITLE17=If Teardrops Were Pennies
TTITLE18=Alice
TTITLE19=Blue Bayou
TTITLE20=Have I Told You Lately
TTITLE21=Send Me The Pillow That You Dream On
TTITLE22=From A Jack To A King
TTITLE23=Let Your Love Flow
TTITLE24=Achy Breaky Heart
TTITLE25=Rhinestone Cowboy
TTITLE26=Tulsa Time
TTITLE27=Seasons In The Sun
TTITLE28=Stand By Your Man
TTITLE29=Little Soldier Blue
TTITLE30=Kentucky Blue
TTITLE31=I Swear
TTITLE32=Help Me Make It Through The Night
TTITLE33=Love Hurst
TTITLE34=Words
EXTD=
EXTT0=
EXTT1=
EXTT2=
EXTT3=
EXTT4=
EXTT5=
EXTT6=
EXTT7=
EXTT8=
EXTT9=
EXTT10=
EXTT11=
EXTT12=
EXTT13=
EXTT14=
EXTT15=
EXTT16=
EXTT17=
EXTT18=
EXTT19=
EXTT20=
EXTT21=
EXTT22=
EXTT23=
EXTT24=
EXTT25=
EXTT26=
EXTT27=
EXTT28=
EXTT29=
EXTT30=
EXTT31=
EXTT32=
EXTT33=
EXTT34=
PLAYORDER=
